<svg width="803" height="312" viewBox="0 0 803 312" fill="none" xmlns="http://www.w3.org/2000/svg">
<path d="M23.0652 13.4269V19.5585H20.8738C20.5197 18.2746 20.0696 17.2564 19.5236 16.5037C18.9775 15.7364 18.343 15.1904 17.6199 14.8657C16.8968 14.5411 16.0261 14.3787 15.0079 14.3787C13.4879 14.3787 12.1303 14.8878 10.935 15.9061C9.7544 16.9096 8.82471 18.4295 8.14588 20.466C7.46706 22.4877 7.12765 24.9374 7.12765 27.815C7.12765 30.7074 7.40803 33.1792 7.9688 35.2304C8.52957 37.2669 9.35596 38.809 10.448 39.8568C11.54 40.8897 12.8829 41.4062 14.4767 41.4062C15.6867 41.4062 16.6754 41.2365 17.4428 40.8971C18.2102 40.543 18.8521 39.9896 19.3686 39.237C19.8999 38.4843 20.4016 37.3776 20.8738 35.9166H23.0652V42.2474C21.6781 42.6163 20.254 42.8893 18.7931 43.0664C17.3469 43.2582 15.7531 43.3542 14.0118 43.3542C10.2635 43.3542 7.43017 42.0851 5.51175 39.5469C3.59334 37.0086 2.63413 33.2235 2.63413 28.1913C2.63413 25.0333 3.12849 22.2664 4.11721 19.8905C5.12069 17.5146 6.58902 15.6774 8.52219 14.3787C10.4554 13.0801 12.7648 12.4308 15.4506 12.4308C16.7935 12.4308 18.0331 12.5046 19.1694 12.6522C20.3057 12.785 21.6043 13.0432 23.0652 13.4269ZM33.5796 25.3137L33.6682 25.3358C34.8192 24.17 35.7268 23.3584 36.3908 22.9009C37.0697 22.4287 37.7337 22.0745 38.383 21.8384C39.0471 21.6023 39.7555 21.4842 40.5081 21.4842C41.3197 21.4842 42.0428 21.5802 42.6773 21.772C43.3119 21.9638 43.8653 22.259 44.3375 22.6574C44.8245 23.0411 45.2156 23.5207 45.5107 24.0962C45.8206 24.657 46.0493 25.3358 46.1969 26.1327C46.3445 26.9148 46.4183 27.9109 46.4183 29.121V37.4661C46.4183 38.75 46.4699 39.628 46.5732 40.1002C46.6913 40.5577 46.8905 40.9193 47.1709 41.1849C47.466 41.4358 48.0489 41.6792 48.9196 41.9154V43H40.1982V41.9154C40.7737 41.7383 41.1869 41.5833 41.4378 41.4505C41.6886 41.3177 41.8952 41.1332 42.0575 40.8971C42.2346 40.661 42.3674 40.2995 42.456 39.8125C42.5593 39.3107 42.6109 38.5581 42.6109 37.5547V31.7551C42.6109 29.7925 42.5076 28.2946 42.301 27.2616C42.1092 26.2139 41.7181 25.4318 41.1279 24.9153C40.5523 24.3988 39.7407 24.1405 38.6929 24.1405C38.1027 24.1405 37.5714 24.2438 37.0992 24.4504C36.627 24.657 36.081 25.0259 35.4612 25.5572C34.8414 26.0884 34.3691 26.6344 34.0445 27.1952C33.7346 27.756 33.5796 28.3536 33.5796 28.9882V37.4661C33.5796 38.4696 33.6018 39.1853 33.646 39.6133C33.7051 40.0412 33.8084 40.4028 33.9559 40.6979C34.1035 40.9783 34.3249 41.2144 34.62 41.4062C34.9299 41.5833 35.4021 41.753 36.0367 41.9154V43H27.271V41.9154C27.9203 41.7383 28.3852 41.5686 28.6655 41.4062C28.9459 41.2439 29.1599 41.0373 29.3075 40.7864C29.4698 40.5356 29.5879 40.174 29.6616 39.7018C29.7354 39.2296 29.7723 38.4843 29.7723 37.4661V18.9387C29.7723 17.522 29.7576 16.5333 29.728 15.9725C29.7133 15.4117 29.6543 14.9395 29.551 14.5558C29.4624 14.1574 29.3296 13.8475 29.1525 13.6261C28.9902 13.4048 28.7615 13.2277 28.4663 13.0949C28.1859 12.9621 27.6694 12.8292 26.9168 12.6964V11.5454L32.2515 11.324H33.5796V25.3137ZM65.4548 39.8346L65.1228 39.7461C63.8389 41.0594 62.6289 41.9891 61.4926 42.5352C60.371 43.0812 59.1757 43.3542 57.9066 43.3542C56.7851 43.3542 55.7963 43.1402 54.9404 42.7122C54.0845 42.2695 53.4278 41.6571 52.9704 40.875C52.5129 40.0781 52.2842 39.1632 52.2842 38.1302C52.2842 35.9757 53.3467 34.3155 55.4717 33.1497C57.6115 31.9691 60.8137 31.2829 65.0785 31.0911V29.6523C65.0785 28.1175 64.931 26.9075 64.6358 26.022C64.3407 25.1366 63.8758 24.4873 63.2413 24.0741C62.6067 23.6609 61.7582 23.4543 60.6957 23.4543C59.5446 23.4543 58.6149 23.7568 57.9066 24.3619C57.213 24.9669 56.6891 25.8745 56.335 27.0845H53.4352V24.2069C54.8519 23.4691 56.0325 22.9304 56.9769 22.591C57.9214 22.2369 58.8658 21.9638 59.8103 21.772C60.7547 21.5654 61.7139 21.4621 62.6879 21.4621C64.1488 21.4621 65.322 21.6982 66.2074 22.1704C67.0929 22.6279 67.7569 23.3363 68.1996 24.2955C68.6423 25.2547 68.8637 26.7009 68.8637 28.634V36.3372C68.8637 37.4292 68.8711 38.204 68.8858 38.6614C68.9006 39.1041 68.9449 39.5173 69.0187 39.901C69.0924 40.2847 69.2031 40.5946 69.3507 40.8307C69.4983 41.0521 69.7122 41.2439 69.9926 41.4062C70.2878 41.5686 70.76 41.7383 71.4093 41.9154V43H65.3441L65.4548 39.8346ZM65.0785 32.9062C62.0828 32.9357 59.8398 33.3341 58.3493 34.1015C56.8589 34.8689 56.1136 36.0273 56.1136 37.5768C56.1136 38.4179 56.2833 39.082 56.6227 39.569C56.9622 40.056 57.3901 40.3954 57.9066 40.5872C58.4231 40.7643 59.0355 40.8529 59.7439 40.8529C60.7473 40.8529 61.6549 40.6094 62.4665 40.1224C63.2929 39.6354 63.9349 39.0156 64.3923 38.263C64.8498 37.5104 65.0785 36.7652 65.0785 36.0273V32.9062ZM89.6268 26.6861H87.5018C87.1772 25.8007 86.7935 25.1071 86.3508 24.6054C85.9081 24.0889 85.4063 23.7273 84.8456 23.5207C84.2848 23.3141 83.5986 23.2108 82.787 23.2108C81.6064 23.2108 80.6619 23.4912 79.9536 24.052C79.26 24.598 78.9132 25.3506 78.9132 26.3098C78.9132 26.9886 79.0534 27.5494 79.3338 27.9921C79.6142 28.4348 80.0495 28.848 80.6398 29.2317C81.2301 29.6154 82.2705 30.1245 83.7609 30.759C85.2661 31.4083 86.4246 32.006 87.2362 32.552C88.0626 33.098 88.7045 33.7326 89.162 34.4557C89.6342 35.1788 89.8703 36.0421 89.8703 37.0455C89.8703 38.2113 89.6711 39.1927 89.2727 39.9896C88.8742 40.7864 88.3135 41.4358 87.5904 41.9375C86.8673 42.4392 86.004 42.8008 85.0005 43.0221C84.0118 43.2435 82.9272 43.3542 81.7466 43.3542C80.507 43.3542 79.3043 43.2582 78.1385 43.0664C76.9727 42.8893 75.8364 42.6532 74.7296 42.3581V37.7317H76.8989C77.2973 39.0894 77.8876 40.0781 78.6698 40.6979C79.4519 41.3029 80.5291 41.6055 81.9015 41.6055C82.4328 41.6055 82.9493 41.5538 83.451 41.4505C83.9675 41.3325 84.425 41.148 84.8234 40.8971C85.2219 40.6315 85.5391 40.2773 85.7753 39.8346C86.0114 39.3919 86.1294 38.8385 86.1294 38.1744C86.1294 37.4218 85.9819 36.8094 85.6867 36.3372C85.3916 35.865 84.9341 35.437 84.3143 35.0533C83.6945 34.6549 82.6025 34.1236 81.0383 33.4596C79.6954 32.8988 78.6181 32.3528 77.8065 31.8215C76.9948 31.2903 76.3529 30.6631 75.8807 29.94C75.4232 29.2169 75.1945 28.361 75.1945 27.3723C75.1945 26.1622 75.5191 25.1145 76.1684 24.2291C76.8325 23.3289 77.7843 22.6427 79.0239 22.1704C80.2635 21.6982 81.7171 21.4621 83.3846 21.4621C84.3586 21.4621 85.2957 21.5138 86.1958 21.6171C87.1108 21.7056 88.2544 21.8901 89.6268 22.1704V26.6861ZM100.606 13.1613V17.4556H96.5331V13.1613H100.606ZM94.2753 41.9154C94.8508 41.7383 95.2567 41.5833 95.4928 41.4505C95.7436 41.3177 95.9502 41.1332 96.1126 40.8971C96.2896 40.661 96.4225 40.2995 96.511 39.8125C96.6143 39.3255 96.666 38.5655 96.666 37.5325V27.8814C96.666 26.937 96.6512 26.177 96.6217 25.6015C96.5922 25.0259 96.4889 24.5685 96.3118 24.2291C96.1347 23.8749 95.8617 23.6166 95.4928 23.4543C95.1386 23.2772 94.6295 23.1297 93.9654 23.0116V21.8384L99.123 21.6392H100.473V37.4661C100.473 38.7352 100.532 39.6206 100.65 40.1224C100.768 40.6094 100.99 40.9857 101.314 41.2513C101.654 41.5022 102.2 41.7235 102.952 41.9154V43H94.2753V41.9154ZM128.453 43H119.731V41.9154C120.307 41.7383 120.72 41.5833 120.971 41.4505C121.222 41.3177 121.428 41.1332 121.591 40.8971C121.768 40.661 121.9 40.2995 121.989 39.8125C122.092 39.3107 122.144 38.5581 122.144 37.5547V31.7551C122.144 30.7221 122.114 29.7851 122.055 28.9439C121.996 28.1028 121.893 27.4166 121.746 26.8853C121.613 26.3393 121.443 25.9187 121.236 25.6236C121.045 25.3137 120.808 25.0554 120.528 24.8488C120.262 24.6275 119.953 24.4578 119.598 24.3397C119.244 24.2069 118.779 24.1405 118.204 24.1405C117.628 24.1405 117.082 24.2586 116.566 24.4947C116.049 24.716 115.481 25.1071 114.861 25.6679C114.242 26.2286 113.791 26.782 113.511 27.328C113.231 27.874 113.091 28.5012 113.091 29.2096V37.4661C113.091 38.7352 113.15 39.6206 113.268 40.1224C113.386 40.6094 113.607 40.9857 113.932 41.2513C114.271 41.5022 114.817 41.7235 115.57 41.9154V43H106.893V41.9154C107.468 41.7383 107.874 41.5833 108.11 41.4505C108.361 41.3177 108.568 41.1332 108.73 40.8971C108.907 40.661 109.04 40.2995 109.128 39.8125C109.232 39.3255 109.283 38.5655 109.283 37.5325V27.8814C109.283 26.937 109.268 26.177 109.239 25.6015C109.209 25.0259 109.106 24.5685 108.929 24.2291C108.752 23.8749 108.479 23.6166 108.11 23.4543C107.756 23.2772 107.247 23.1297 106.583 23.0116V21.8384L111.762 21.6392H113.113L112.869 25.2473L113.179 25.3358C114.271 24.2291 115.149 23.4396 115.813 22.9673C116.492 22.4951 117.171 22.1336 117.85 21.8827C118.543 21.6171 119.274 21.4842 120.041 21.4842C120.838 21.4842 121.546 21.5802 122.166 21.772C122.801 21.9491 123.354 22.2295 123.826 22.6132C124.313 22.9968 124.712 23.4764 125.022 24.052C125.331 24.6127 125.56 25.2916 125.708 26.0884C125.87 26.8853 125.951 27.8962 125.951 29.121V37.4661C125.951 38.4843 125.981 39.2222 126.04 39.6797C126.099 40.1371 126.202 40.4913 126.35 40.7422C126.497 40.993 126.711 41.207 126.992 41.3841C127.272 41.5464 127.759 41.7235 128.453 41.9154V43ZM152.071 24.0741L147.976 23.9192L147.777 24.1626C148.234 24.6201 148.596 25.2473 148.862 26.0442C149.127 26.8263 149.26 27.6748 149.26 28.5898C149.26 30.9952 148.515 32.8545 147.024 34.1679C145.549 35.4665 143.446 36.1158 140.716 36.1158C139.491 36.1158 138.436 35.9609 137.55 35.651C136.429 36.5069 135.868 37.3481 135.868 38.1744C135.868 38.7205 135.971 39.1337 136.178 39.414C136.399 39.6944 136.753 39.8936 137.24 40.0117C137.742 40.1298 138.495 40.1888 139.498 40.1888H144.811C146.375 40.1888 147.652 40.4323 148.64 40.9193C149.629 41.4062 150.33 42.0629 150.743 42.8893C151.171 43.701 151.385 44.6528 151.385 45.7448C151.385 47.132 150.987 48.3642 150.19 49.4414C149.393 50.5335 148.242 51.382 146.737 51.987C145.231 52.5921 143.475 52.8946 141.468 52.8946C139.978 52.8946 138.613 52.806 137.373 52.629C136.148 52.4519 135.093 52.1494 134.208 51.7214C133.337 51.3082 132.658 50.7548 132.171 50.0612C131.699 49.3824 131.463 48.5265 131.463 47.4935C131.463 46.5638 131.773 45.7153 132.393 44.9479C133.013 44.1953 133.891 43.5313 135.027 42.9557C134.333 42.6753 133.787 42.2621 133.389 41.7161C132.99 41.1701 132.791 40.5282 132.791 39.7903C132.791 38.9492 133.027 38.1818 133.5 37.4882C133.972 36.7799 134.806 35.9757 136.001 35.0755C134.938 34.4557 134.127 33.6145 133.566 32.552C133.02 31.4895 132.747 30.2794 132.747 28.9218C132.747 27.6527 132.954 26.5533 133.367 25.6236C133.795 24.6791 134.378 23.9044 135.115 23.2994C135.868 22.6796 136.753 22.2221 137.772 21.927C138.79 21.6171 139.889 21.4621 141.07 21.4621C142.132 21.4621 143.188 21.5875 144.235 21.8384H152.071V24.0741ZM136.709 28.5676C136.709 30.4122 137.085 31.8363 137.838 32.8398C138.591 33.8433 139.675 34.345 141.092 34.345C141.845 34.345 142.487 34.2048 143.018 33.9244C143.549 33.6293 143.977 33.2308 144.302 32.7291C144.641 32.2274 144.885 31.6518 145.032 31.0025C145.194 30.3385 145.276 29.6449 145.276 28.9218C145.276 27.6232 145.091 26.5385 144.722 25.6679C144.353 24.7972 143.852 24.1626 143.217 23.7642C142.582 23.351 141.852 23.1444 141.026 23.1444C139.624 23.1444 138.554 23.6093 137.816 24.5389C137.078 25.4686 136.709 26.8115 136.709 28.5676ZM137.263 43.3542C136.51 43.9149 135.942 44.5052 135.558 45.125C135.189 45.7596 135.005 46.4753 135.005 47.2722C135.005 48.6003 135.529 49.5743 136.576 50.1941C137.639 50.8286 139.255 51.1459 141.424 51.1459C142.752 51.1459 143.888 50.9688 144.833 50.6146C145.792 50.2605 146.523 49.7513 147.024 49.0873C147.526 48.4232 147.777 47.6485 147.777 46.763C147.777 46.3498 147.725 45.944 147.622 45.5456C147.519 45.1619 147.319 44.8151 147.024 44.5052C146.744 44.1953 146.338 43.9445 145.807 43.7526C145.276 43.5755 144.582 43.487 143.726 43.487H140.428C139.233 43.487 138.178 43.4427 137.263 43.3542ZM171.506 41.4948C171.506 43.487 171.27 45.1029 170.798 46.3425C170.34 47.5821 169.558 48.6298 168.452 49.4857C167.36 50.3416 165.825 51.0721 163.847 51.6771L163.117 49.7292C164.415 49.2275 165.338 48.7184 165.884 48.2019C166.43 47.7001 166.806 47.0656 167.013 46.2982C167.234 45.5308 167.345 44.4978 167.345 43.1992V18.3189C167.345 17.035 167.278 16.157 167.146 15.6847C167.027 15.2125 166.821 14.851 166.526 14.6001C166.245 14.3492 165.655 14.1057 164.755 13.8696V12.785H174.096V13.8696C173.447 14.0319 172.975 14.1943 172.679 14.3566C172.399 14.5189 172.17 14.7255 171.993 14.9764C171.831 15.2125 171.705 15.5741 171.617 16.061C171.543 16.548 171.506 17.3006 171.506 18.3189V41.4948ZM188.152 43.3542C185.083 43.3542 182.736 42.454 181.113 40.6536C179.505 38.8385 178.7 36.1601 178.7 32.6184C178.7 30.1835 179.121 28.1249 179.962 26.4426C180.818 24.7603 181.984 23.5133 183.459 22.7017C184.935 21.8753 186.617 21.4621 188.506 21.4621C191.664 21.4621 194.055 22.3844 195.678 24.2291C197.302 26.0589 198.113 28.6931 198.113 32.1314C198.113 34.5811 197.707 36.6471 196.896 38.3294C196.084 40.0117 194.933 41.2734 193.443 42.1146C191.952 42.941 190.189 43.3542 188.152 43.3542ZM182.884 32.1536C182.884 35.1935 183.364 37.5325 184.323 39.1705C185.297 40.7938 186.684 41.6055 188.484 41.6055C189.473 41.6055 190.314 41.3693 191.008 40.8971C191.701 40.4101 192.262 39.7608 192.69 38.9492C193.133 38.1376 193.45 37.2005 193.642 36.138C193.834 35.0607 193.93 33.9392 193.93 32.7734C193.93 30.6041 193.686 28.8037 193.199 27.3723C192.727 25.9409 192.078 24.8931 191.251 24.2291C190.425 23.5502 189.48 23.2108 188.418 23.2108C186.632 23.2108 185.26 23.9856 184.301 25.535C183.356 27.0845 182.884 29.2907 182.884 32.1536ZM208.185 25.3137L208.273 25.3358C209.306 24.2586 210.162 23.4764 210.841 22.9895C211.535 22.5025 212.243 22.1336 212.966 21.8827C213.704 21.6171 214.508 21.4842 215.379 21.4842C216.958 21.4842 218.308 21.8901 219.43 22.7017C220.566 23.4986 221.437 24.7013 222.042 26.3098C222.662 27.9183 222.971 29.8884 222.971 32.22C222.971 34.6254 222.602 36.6619 221.865 38.3294C221.142 39.9822 220.064 41.2365 218.633 42.0924C217.216 42.9336 215.534 43.3542 213.586 43.3542C212.494 43.3542 211.461 43.2509 210.487 43.0443C209.528 42.8524 208.517 42.5056 207.454 42.0039L205.905 43.3542L204.378 43V18.9387C204.378 17.522 204.363 16.5333 204.333 15.9725C204.319 15.4117 204.26 14.9395 204.156 14.5558C204.068 14.1574 203.935 13.8475 203.758 13.6261C203.595 13.4048 203.367 13.2277 203.072 13.0949C202.791 12.9621 202.275 12.8292 201.522 12.6964V11.5454L206.879 11.324H208.185V25.3137ZM208.185 35.0312C208.185 36.1675 208.237 37.0751 208.34 37.7539C208.443 38.4179 208.613 38.9713 208.849 39.414C209.1 39.8568 209.454 40.2626 209.911 40.6315C210.384 41.0004 210.908 41.2587 211.483 41.4062C212.059 41.5391 212.701 41.6055 213.409 41.6055C215.18 41.6055 216.523 40.8824 217.438 39.4362C218.352 37.99 218.81 35.8207 218.81 32.9283C218.81 30.0064 218.389 27.815 217.548 26.3541C216.722 24.8784 215.467 24.1405 213.785 24.1405C212.944 24.1405 212.228 24.2733 211.638 24.5389C211.048 24.7898 210.457 25.1883 209.867 25.7343C209.292 26.2803 208.864 26.8189 208.583 27.3502C208.318 27.8814 208.185 28.4865 208.185 29.1653V35.0312ZM242.274 26.6861H240.149C239.824 25.8007 239.44 25.1071 238.998 24.6054C238.555 24.0889 238.053 23.7273 237.492 23.5207C236.932 23.3141 236.245 23.2108 235.434 23.2108C234.253 23.2108 233.309 23.4912 232.6 24.052C231.907 24.598 231.56 25.3506 231.56 26.3098C231.56 26.9886 231.7 27.5494 231.981 27.9921C232.261 28.4348 232.696 28.848 233.287 29.2317C233.877 29.6154 234.917 30.1245 236.408 30.759C237.913 31.4083 239.071 32.006 239.883 32.552C240.709 33.098 241.351 33.7326 241.809 34.4557C242.281 35.1788 242.517 36.0421 242.517 37.0455C242.517 38.2113 242.318 39.1927 241.919 39.9896C241.521 40.7864 240.96 41.4358 240.237 41.9375C239.514 42.4392 238.651 42.8008 237.647 43.0221C236.659 43.2435 235.574 43.3542 234.393 43.3542C233.154 43.3542 231.951 43.2582 230.785 43.0664C229.619 42.8893 228.483 42.6532 227.376 42.3581V37.7317H229.546C229.944 39.0894 230.534 40.0781 231.317 40.6979C232.099 41.3029 233.176 41.6055 234.548 41.6055C235.08 41.6055 235.596 41.5538 236.098 41.4505C236.614 41.3325 237.072 41.148 237.47 40.8971C237.869 40.6315 238.186 40.2773 238.422 39.8346C238.658 39.3919 238.776 38.8385 238.776 38.1744C238.776 37.4218 238.629 36.8094 238.333 36.3372C238.038 35.865 237.581 35.437 236.961 35.0533C236.341 34.6549 235.249 34.1236 233.685 33.4596C232.342 32.8988 231.265 32.3528 230.453 31.8215C229.642 31.2903 229 30.6631 228.527 29.94C228.07 29.2169 227.841 28.361 227.841 27.3723C227.841 26.1622 228.166 25.1145 228.815 24.2291C229.479 23.3289 230.431 22.6427 231.671 22.1704C232.91 21.6982 234.364 21.4621 236.031 21.4621C237.005 21.4621 237.942 21.5138 238.843 21.6171C239.758 21.7056 240.901 21.8901 242.274 22.1704V26.6861ZM251.77 33.7916V33.039C251.77 32.434 251.807 31.947 251.88 31.5781C251.954 31.2091 252.08 30.8181 252.257 30.4049C252.449 29.9769 252.736 29.4752 253.12 28.8997C253.518 28.3241 254.079 27.5863 254.802 26.6861C255.658 25.5941 256.271 24.7087 256.64 24.0298C257.023 23.351 257.311 22.65 257.503 21.927C257.695 21.1891 257.791 20.3701 257.791 19.4699C257.791 18.3336 257.636 17.3744 257.326 16.5923C257.016 15.7954 256.581 15.1977 256.02 14.7993C255.459 14.4009 254.81 14.2016 254.072 14.2016C252.906 14.2016 251.969 14.5484 251.261 15.242C250.567 15.9356 250.087 16.976 249.822 18.3631H246.811V14.7329C248.494 13.877 249.918 13.2793 251.084 12.9399C252.264 12.6005 253.423 12.4308 254.559 12.4308C256.33 12.4308 257.791 12.6964 258.942 13.2277C260.107 13.7589 260.949 14.482 261.465 15.397C261.996 16.3119 262.262 17.367 262.262 18.5624C262.262 19.1674 262.203 19.7282 262.085 20.2447C261.982 20.7464 261.819 21.2408 261.598 21.7277C261.377 22.2147 261.096 22.7165 260.757 23.233C260.417 23.7347 260.034 24.2438 259.606 24.7603C259.193 25.2768 258.462 26.1475 257.414 27.3723C256.632 28.2872 256.064 29.0251 255.71 29.5859C255.356 30.1319 255.105 30.6705 254.957 31.2018C254.81 31.7182 254.736 32.3971 254.736 33.2382V33.7916H251.77ZM255.511 37.8646V43H251.084V37.8646H255.511ZM283.357 40.9635H289.157C289.791 40.9635 290.323 40.9266 290.75 40.8529C291.178 40.7791 291.54 40.6684 291.835 40.5208C292.145 40.3585 292.418 40.1445 292.654 39.8789C292.905 39.5985 293.141 39.237 293.362 38.7942C293.584 38.3515 293.79 37.7981 293.982 37.1341C294.189 36.4553 294.44 35.4444 294.735 34.1015H296.971L296.528 43H276.628V41.9154C277.543 41.6792 278.155 41.421 278.465 41.1406C278.775 40.8455 278.974 40.4323 279.063 39.901C279.166 39.3698 279.218 38.5581 279.218 37.4661V18.3189C279.218 17.3006 279.181 16.5628 279.107 16.1053C279.033 15.6331 278.908 15.2715 278.731 15.0207C278.569 14.755 278.347 14.5484 278.067 14.4009C277.786 14.2385 277.307 14.0615 276.628 13.8696V12.785H285.947V13.8696C285.298 14.0467 284.833 14.209 284.553 14.3566C284.287 14.4894 284.066 14.6739 283.888 14.91C283.711 15.1461 283.579 15.5076 283.49 15.9946C283.401 16.4816 283.357 17.2564 283.357 18.3189V40.9635ZM318.132 39.237C317.188 40.2257 316.317 41.0004 315.52 41.5612C314.738 42.122 313.875 42.5647 312.93 42.8893C311.986 43.1992 310.945 43.3542 309.809 43.3542C306.769 43.3542 304.475 42.4466 302.925 40.6315C301.376 38.8016 300.601 36.1085 300.601 32.552C300.601 30.3532 300.992 28.4127 301.774 26.7304C302.571 25.0481 303.7 23.7494 305.161 22.8345C306.622 21.9196 308.304 21.4621 310.208 21.4621C311.698 21.4621 312.967 21.6982 314.015 22.1704C315.063 22.6427 315.896 23.292 316.516 24.1184C317.151 24.93 317.638 25.963 317.977 27.2174C318.331 28.4569 318.531 30.0802 318.575 32.0872H304.629V32.4856C304.629 34.2269 304.821 35.6953 305.205 36.8906C305.603 38.0712 306.245 39.0008 307.131 39.6797C308.031 40.3437 309.197 40.6758 310.628 40.6758C311.838 40.6758 312.923 40.4544 313.882 40.0117C314.856 39.5542 315.823 38.8164 316.782 37.7981L318.132 39.237ZM314.413 30.2499C314.325 28.6562 314.126 27.3575 313.816 26.3541C313.506 25.3358 313.041 24.5611 312.421 24.0298C311.801 23.4838 310.99 23.2108 309.986 23.2108C308.466 23.2108 307.249 23.8232 306.334 25.0481C305.434 26.2581 304.902 27.9921 304.74 30.2499H314.413ZM321.253 22.9452C321.991 22.8271 322.589 22.6205 323.046 22.3254C323.504 22.0303 323.858 21.6539 324.109 21.1965C324.374 20.7243 324.581 20.1414 324.729 19.4478C324.876 18.7394 325.031 17.7138 325.193 16.3709H328.337V21.8384H335.486V24.0741H328.337V33.9244C328.337 35.3559 328.396 36.4995 328.514 37.3554C328.632 38.1966 328.853 38.8607 329.178 39.3476C329.502 39.8199 329.871 40.1593 330.285 40.3659C330.698 40.5725 331.229 40.6758 331.878 40.6758C332.469 40.6758 333.022 40.5577 333.539 40.3216C334.055 40.0707 334.564 39.7166 335.066 39.2591L336.062 40.4544C335.014 41.4726 334.018 42.2105 333.074 42.668C332.144 43.1254 331.177 43.3542 330.174 43.3542C328.27 43.3542 326.854 42.7934 325.924 41.6719C324.994 40.5356 324.529 38.7647 324.529 36.3593V24.0741H321.253V22.9452ZM346.621 22.9452C347.358 22.8271 347.956 22.6205 348.414 22.3254C348.871 22.0303 349.225 21.6539 349.476 21.1965C349.742 20.7243 349.948 20.1414 350.096 19.4478C350.243 18.7394 350.398 17.7138 350.561 16.3709H353.704V21.8384H360.854V24.0741H353.704V33.9244C353.704 35.3559 353.763 36.4995 353.881 37.3554C353.999 38.1966 354.22 38.8607 354.545 39.3476C354.87 39.8199 355.239 40.1593 355.652 40.3659C356.065 40.5725 356.596 40.6758 357.246 40.6758C357.836 40.6758 358.389 40.5577 358.906 40.3216C359.422 40.0707 359.931 39.7166 360.433 39.2591L361.429 40.4544C360.382 41.4726 359.385 42.2105 358.441 42.668C357.511 43.1254 356.545 43.3542 355.541 43.3542C353.638 43.3542 352.221 42.7934 351.291 41.6719C350.362 40.5356 349.897 38.7647 349.897 36.3593V24.0741H346.621V22.9452ZM369.243 25.3137L369.332 25.3358C370.483 24.17 371.39 23.3584 372.054 22.9009C372.733 22.4287 373.397 22.0745 374.047 21.8384C374.711 21.6023 375.419 21.4842 376.172 21.4842C376.983 21.4842 377.706 21.5802 378.341 21.772C378.975 21.9638 379.529 22.259 380.001 22.6574C380.488 23.0411 380.879 23.5207 381.174 24.0962C381.484 24.657 381.713 25.3358 381.86 26.1327C382.008 26.9148 382.082 27.9109 382.082 29.121V37.4661C382.082 38.75 382.133 39.628 382.237 40.1002C382.355 40.5577 382.554 40.9193 382.834 41.1849C383.13 41.4358 383.712 41.6792 384.583 41.9154V43H375.862V41.9154C376.437 41.7383 376.85 41.5833 377.101 41.4505C377.352 41.3177 377.559 41.1332 377.721 40.8971C377.898 40.661 378.031 40.2995 378.119 39.8125C378.223 39.3107 378.274 38.5581 378.274 37.5547V31.7551C378.274 29.7925 378.171 28.2946 377.965 27.2616C377.773 26.2139 377.382 25.4318 376.791 24.9153C376.216 24.3988 375.404 24.1405 374.356 24.1405C373.766 24.1405 373.235 24.2438 372.763 24.4504C372.29 24.657 371.744 25.0259 371.125 25.5572C370.505 26.0884 370.033 26.6344 369.708 27.1952C369.398 27.756 369.243 28.3536 369.243 28.9882V37.4661C369.243 38.4696 369.265 39.1853 369.31 39.6133C369.369 40.0412 369.472 40.4028 369.619 40.6979C369.767 40.9783 369.988 41.2144 370.284 41.4062C370.593 41.5833 371.066 41.753 371.7 41.9154V43H362.935V41.9154C363.584 41.7383 364.049 41.5686 364.329 41.4062C364.609 41.2439 364.823 41.0373 364.971 40.7864C365.133 40.5356 365.251 40.174 365.325 39.7018C365.399 39.2296 365.436 38.4843 365.436 37.4661V18.9387C365.436 17.522 365.421 16.5333 365.392 15.9725C365.377 15.4117 365.318 14.9395 365.214 14.5558C365.126 14.1574 364.993 13.8475 364.816 13.6261C364.654 13.4048 364.425 13.2277 364.13 13.0949C363.849 12.9621 363.333 12.8292 362.58 12.6964V11.5454L367.915 11.324H369.243V25.3137ZM406.01 39.237C405.066 40.2257 404.195 41.0004 403.398 41.5612C402.616 42.122 401.753 42.5647 400.808 42.8893C399.864 43.1992 398.824 43.3542 397.687 43.3542C394.647 43.3542 392.353 42.4466 390.803 40.6315C389.254 38.8016 388.479 36.1085 388.479 32.552C388.479 30.3532 388.87 28.4127 389.652 26.7304C390.449 25.0481 391.578 23.7494 393.039 22.8345C394.5 21.9196 396.182 21.4621 398.086 21.4621C399.576 21.4621 400.845 21.6982 401.893 22.1704C402.941 22.6427 403.775 23.292 404.394 24.1184C405.029 24.93 405.516 25.963 405.855 27.2174C406.21 28.4569 406.409 30.0802 406.453 32.0872H392.508V32.4856C392.508 34.2269 392.699 35.6953 393.083 36.8906C393.482 38.0712 394.124 39.0008 395.009 39.6797C395.909 40.3437 397.075 40.6758 398.506 40.6758C399.716 40.6758 400.801 40.4544 401.76 40.0117C402.734 39.5542 403.701 38.8164 404.66 37.7981L406.01 39.237ZM402.292 30.2499C402.203 28.6562 402.004 27.3575 401.694 26.3541C401.384 25.3358 400.919 24.5611 400.299 24.0298C399.68 23.4838 398.868 23.2108 397.864 23.2108C396.344 23.2108 395.127 23.8232 394.212 25.0481C393.312 26.2581 392.781 27.9921 392.618 30.2499H402.292ZM427.349 41.4948C427.349 43.487 427.113 45.1029 426.641 46.3425C426.183 47.5821 425.401 48.6298 424.294 49.4857C423.202 50.3416 421.668 51.0721 419.69 51.6771L418.96 49.7292C420.258 49.2275 421.181 48.7184 421.727 48.2019C422.273 47.7001 422.649 47.0656 422.855 46.2982C423.077 45.5308 423.187 44.4978 423.187 43.1992V18.3189C423.187 17.035 423.121 16.157 422.988 15.6847C422.87 15.2125 422.664 14.851 422.368 14.6001C422.088 14.3492 421.498 14.1057 420.598 13.8696V12.785H429.939V13.8696C429.29 14.0319 428.817 14.1943 428.522 14.3566C428.242 14.5189 428.013 14.7255 427.836 14.9764C427.674 15.2125 427.548 15.5741 427.46 16.061C427.386 16.548 427.349 17.3006 427.349 18.3189V41.4948ZM443.995 43.3542C440.925 43.3542 438.579 42.454 436.956 40.6536C435.347 38.8385 434.543 36.1601 434.543 32.6184C434.543 30.1835 434.964 28.1249 435.805 26.4426C436.661 24.7603 437.826 23.5133 439.302 22.7017C440.778 21.8753 442.46 21.4621 444.349 21.4621C447.507 21.4621 449.898 22.3844 451.521 24.2291C453.144 26.0589 453.956 28.6931 453.956 32.1314C453.956 34.5811 453.55 36.6471 452.738 38.3294C451.927 40.0117 450.776 41.2734 449.285 42.1146C447.795 42.941 446.031 43.3542 443.995 43.3542ZM438.727 32.1536C438.727 35.1935 439.206 37.5325 440.165 39.1705C441.139 40.7938 442.527 41.6055 444.327 41.6055C445.316 41.6055 446.157 41.3693 446.85 40.8971C447.544 40.4101 448.105 39.7608 448.533 38.9492C448.975 38.1376 449.293 37.2005 449.485 36.138C449.676 35.0607 449.772 33.9392 449.772 32.7734C449.772 30.6041 449.529 28.8037 449.042 27.3723C448.57 25.9409 447.92 24.8931 447.094 24.2291C446.267 23.5502 445.323 23.2108 444.261 23.2108C442.475 23.2108 441.103 23.9856 440.143 25.535C439.199 27.0845 438.727 29.2907 438.727 32.1536ZM464.028 25.3137L464.116 25.3358C465.149 24.2586 466.005 23.4764 466.684 22.9895C467.377 22.5025 468.086 22.1336 468.809 21.8827C469.547 21.6171 470.351 21.4842 471.222 21.4842C472.801 21.4842 474.151 21.8901 475.272 22.7017C476.409 23.4986 477.279 24.7013 477.884 26.3098C478.504 27.9183 478.814 29.8884 478.814 32.22C478.814 34.6254 478.445 36.6619 477.707 38.3294C476.984 39.9822 475.907 41.2365 474.476 42.0924C473.059 42.9336 471.377 43.3542 469.429 43.3542C468.337 43.3542 467.304 43.2509 466.33 43.0443C465.37 42.8524 464.36 42.5056 463.297 42.0039L461.748 43.3542L460.22 43V18.9387C460.22 17.522 460.206 16.5333 460.176 15.9725C460.161 15.4117 460.102 14.9395 459.999 14.5558C459.91 14.1574 459.778 13.8475 459.6 13.6261C459.438 13.4048 459.209 13.2277 458.914 13.0949C458.634 12.9621 458.117 12.8292 457.365 12.6964V11.5454L462.722 11.324H464.028V25.3137ZM464.028 35.0312C464.028 36.1675 464.079 37.0751 464.183 37.7539C464.286 38.4179 464.456 38.9713 464.692 39.414C464.943 39.8568 465.297 40.2626 465.754 40.6315C466.226 41.0004 466.75 41.2587 467.326 41.4062C467.901 41.5391 468.543 41.6055 469.252 41.6055C471.022 41.6055 472.365 40.8824 473.28 39.4362C474.195 37.99 474.653 35.8207 474.653 32.9283C474.653 30.0064 474.232 27.815 473.391 26.3541C472.565 24.8784 471.31 24.1405 469.628 24.1405C468.787 24.1405 468.071 24.2733 467.481 24.5389C466.89 24.7898 466.3 25.1883 465.71 25.7343C465.134 26.2803 464.706 26.8189 464.426 27.3502C464.16 27.8814 464.028 28.4865 464.028 29.1653V35.0312ZM498.116 26.6861H495.991C495.667 25.8007 495.283 25.1071 494.84 24.6054C494.398 24.0889 493.896 23.7273 493.335 23.5207C492.774 23.3141 492.088 23.2108 491.276 23.2108C490.096 23.2108 489.151 23.4912 488.443 24.052C487.75 24.598 487.403 25.3506 487.403 26.3098C487.403 26.9886 487.543 27.5494 487.823 27.9921C488.104 28.4348 488.539 28.848 489.129 29.2317C489.72 29.6154 490.76 30.1245 492.25 30.759C493.756 31.4083 494.914 32.006 495.726 32.552C496.552 33.098 497.194 33.7326 497.651 34.4557C498.124 35.1788 498.36 36.0421 498.36 37.0455C498.36 38.2113 498.161 39.1927 497.762 39.9896C497.364 40.7864 496.803 41.4358 496.08 41.9375C495.357 42.4392 494.493 42.8008 493.49 43.0221C492.501 43.2435 491.417 43.3542 490.236 43.3542C488.996 43.3542 487.794 43.2582 486.628 43.0664C485.462 42.8893 484.326 42.6532 483.219 42.3581V37.7317H485.388C485.787 39.0894 486.377 40.0781 487.159 40.6979C487.941 41.3029 489.019 41.6055 490.391 41.6055C490.922 41.6055 491.439 41.5538 491.941 41.4505C492.457 41.3325 492.914 41.148 493.313 40.8971C493.711 40.6315 494.029 40.2773 494.265 39.8346C494.501 39.3919 494.619 38.8385 494.619 38.1744C494.619 37.4218 494.471 36.8094 494.176 36.3372C493.881 35.865 493.424 35.437 492.804 35.0533C492.184 34.6549 491.092 34.1236 489.528 33.4596C488.185 32.8988 487.108 32.3528 486.296 31.8215C485.484 31.2903 484.842 30.6631 484.37 29.94C483.913 29.2169 483.684 28.361 483.684 27.3723C483.684 26.1622 484.009 25.1145 484.658 24.2291C485.322 23.3289 486.274 22.6427 487.513 22.1704C488.753 21.6982 490.207 21.4621 491.874 21.4621C492.848 21.4621 493.785 21.5138 494.685 21.6171C495.6 21.7056 496.744 21.8901 498.116 22.1704V26.6861ZM533.688 13.4269V19.5585H531.497C531.143 18.2746 530.692 17.2564 530.146 16.5037C529.6 15.7364 528.966 15.1904 528.243 14.8657C527.52 14.5411 526.649 14.3787 525.631 14.3787C524.111 14.3787 522.753 14.8878 521.558 15.9061C520.377 16.9096 519.448 18.4295 518.769 20.466C518.09 22.4877 517.751 24.9374 517.751 27.815C517.751 30.7074 518.031 33.1792 518.592 35.2304C519.152 37.2669 519.979 38.809 521.071 39.8568C522.163 40.8897 523.506 41.4062 525.1 41.4062C526.31 41.4062 527.298 41.2365 528.066 40.8971C528.833 40.543 529.475 39.9896 529.992 39.237C530.523 38.4843 531.025 37.3776 531.497 35.9166H533.688V42.2474C532.301 42.6163 530.877 42.8893 529.416 43.0664C527.97 43.2582 526.376 43.3542 524.635 43.3542C520.886 43.3542 518.053 42.0851 516.135 39.5469C514.216 37.0086 513.257 33.2235 513.257 28.1913C513.257 25.0333 513.751 22.2664 514.74 19.8905C515.744 17.5146 517.212 15.6774 519.145 14.3787C521.078 13.0801 523.388 12.4308 526.074 12.4308C527.416 12.4308 528.656 12.5046 529.792 12.6522C530.929 12.785 532.227 13.0432 533.688 13.4269ZM544.203 25.3137L544.291 25.3358C545.442 24.17 546.35 23.3584 547.014 22.9009C547.693 22.4287 548.357 22.0745 549.006 21.8384C549.67 21.6023 550.378 21.4842 551.131 21.4842C551.943 21.4842 552.666 21.5802 553.3 21.772C553.935 21.9638 554.488 22.259 554.96 22.6574C555.447 23.0411 555.838 23.5207 556.134 24.0962C556.443 24.657 556.672 25.3358 556.82 26.1327C556.967 26.9148 557.041 27.9109 557.041 29.121V37.4661C557.041 38.75 557.093 39.628 557.196 40.1002C557.314 40.5577 557.513 40.9193 557.794 41.1849C558.089 41.4358 558.672 41.6792 559.542 41.9154V43H550.821V41.9154C551.397 41.7383 551.81 41.5833 552.061 41.4505C552.312 41.3177 552.518 41.1332 552.68 40.8971C552.858 40.661 552.99 40.2995 553.079 39.8125C553.182 39.3107 553.234 38.5581 553.234 37.5547V31.7551C553.234 29.7925 553.131 28.2946 552.924 27.2616C552.732 26.2139 552.341 25.4318 551.751 24.9153C551.175 24.3988 550.364 24.1405 549.316 24.1405C548.726 24.1405 548.194 24.2438 547.722 24.4504C547.25 24.657 546.704 25.0259 546.084 25.5572C545.464 26.0884 544.992 26.6344 544.667 27.1952C544.357 27.756 544.203 28.3536 544.203 28.9882V37.4661C544.203 38.4696 544.225 39.1853 544.269 39.6133C544.328 40.0412 544.431 40.4028 544.579 40.6979C544.726 40.9783 544.948 41.2144 545.243 41.4062C545.553 41.5833 546.025 41.753 546.66 41.9154V43H537.894V41.9154C538.543 41.7383 539.008 41.5686 539.288 41.4062C539.569 41.2439 539.783 41.0373 539.93 40.7864C540.093 40.5356 540.211 40.174 540.285 39.7018C540.358 39.2296 540.395 38.4843 540.395 37.4661V18.9387C540.395 17.522 540.38 16.5333 540.351 15.9725C540.336 15.4117 540.277 14.9395 540.174 14.5558C540.085 14.1574 539.952 13.8475 539.775 13.6261C539.613 13.4048 539.384 13.2277 539.089 13.0949C538.809 12.9621 538.292 12.8292 537.54 12.6964V11.5454L542.874 11.324H544.203V25.3137ZM576.078 39.8346L575.746 39.7461C574.462 41.0594 573.252 41.9891 572.115 42.5352C570.994 43.0812 569.799 43.3542 568.53 43.3542C567.408 43.3542 566.419 43.1402 565.563 42.7122C564.707 42.2695 564.051 41.6571 563.593 40.875C563.136 40.0781 562.907 39.1632 562.907 38.1302C562.907 35.9757 563.97 34.3155 566.095 33.1497C568.234 31.9691 571.437 31.2829 575.701 31.0911V29.6523C575.701 28.1175 575.554 26.9075 575.259 26.022C574.964 25.1366 574.499 24.4873 573.864 24.0741C573.23 23.6609 572.381 23.4543 571.319 23.4543C570.168 23.4543 569.238 23.7568 568.53 24.3619C567.836 24.9669 567.312 25.8745 566.958 27.0845H564.058V24.2069C565.475 23.4691 566.655 22.9304 567.6 22.591C568.544 22.2369 569.489 21.9638 570.433 21.772C571.378 21.5654 572.337 21.4621 573.311 21.4621C574.772 21.4621 575.945 21.6982 576.83 22.1704C577.716 22.6279 578.38 23.3363 578.823 24.2955C579.265 25.2547 579.487 26.7009 579.487 28.634V36.3372C579.487 37.4292 579.494 38.204 579.509 38.6614C579.523 39.1041 579.568 39.5173 579.642 39.901C579.715 40.2847 579.826 40.5946 579.974 40.8307C580.121 41.0521 580.335 41.2439 580.616 41.4062C580.911 41.5686 581.383 41.7383 582.032 41.9154V43H575.967L576.078 39.8346ZM575.701 32.9062C572.706 32.9357 570.463 33.3341 568.972 34.1015C567.482 34.8689 566.737 36.0273 566.737 37.5768C566.737 38.4179 566.906 39.082 567.246 39.569C567.585 40.056 568.013 40.3954 568.53 40.5872C569.046 40.7643 569.658 40.8529 570.367 40.8529C571.37 40.8529 572.278 40.6094 573.089 40.1224C573.916 39.6354 574.558 39.0156 575.015 38.263C575.473 37.5104 575.701 36.7652 575.701 36.0273V32.9062ZM600.25 26.6861H598.125C597.8 25.8007 597.416 25.1071 596.974 24.6054C596.531 24.0889 596.029 23.7273 595.468 23.5207C594.908 23.3141 594.222 23.2108 593.41 23.2108C592.229 23.2108 591.285 23.4912 590.577 24.052C589.883 24.598 589.536 25.3506 589.536 26.3098C589.536 26.9886 589.676 27.5494 589.957 27.9921C590.237 28.4348 590.672 28.848 591.263 29.2317C591.853 29.6154 592.893 30.1245 594.384 30.759C595.889 31.4083 597.047 32.006 597.859 32.552C598.686 33.098 599.327 33.7326 599.785 34.4557C600.257 35.1788 600.493 36.0421 600.493 37.0455C600.493 38.2113 600.294 39.1927 599.896 39.9896C599.497 40.7864 598.936 41.4358 598.213 41.9375C597.49 42.4392 596.627 42.8008 595.623 43.0221C594.635 43.2435 593.55 43.3542 592.37 43.3542C591.13 43.3542 589.927 43.2582 588.761 43.0664C587.596 42.8893 586.459 42.6532 585.353 42.3581V37.7317H587.522C587.92 39.0894 588.511 40.0781 589.293 40.6979C590.075 41.3029 591.152 41.6055 592.524 41.6055C593.056 41.6055 593.572 41.5538 594.074 41.4505C594.59 41.3325 595.048 41.148 595.446 40.8971C595.845 40.6315 596.162 40.2773 596.398 39.8346C596.634 39.3919 596.752 38.8385 596.752 38.1744C596.752 37.4218 596.605 36.8094 596.31 36.3372C596.014 35.865 595.557 35.437 594.937 35.0533C594.317 34.6549 593.225 34.1236 591.661 33.4596C590.318 32.8988 589.241 32.3528 588.429 31.8215C587.618 31.2903 586.976 30.6631 586.504 29.94C586.046 29.2169 585.817 28.361 585.817 27.3723C585.817 26.1622 586.142 25.1145 586.791 24.2291C587.455 23.3289 588.407 22.6427 589.647 22.1704C590.886 21.6982 592.34 21.4621 594.008 21.4621C594.981 21.4621 595.919 21.5138 596.819 21.6171C597.734 21.7056 598.877 21.8901 600.25 22.1704V26.6861ZM622.585 39.237C621.64 40.2257 620.769 41.0004 619.973 41.5612C619.19 42.122 618.327 42.5647 617.383 42.8893C616.438 43.1992 615.398 43.3542 614.262 43.3542C611.222 43.3542 608.927 42.4466 607.377 40.6315C605.828 38.8016 605.053 36.1085 605.053 32.552C605.053 30.3532 605.444 28.4127 606.226 26.7304C607.023 25.0481 608.152 23.7494 609.613 22.8345C611.074 21.9196 612.756 21.4621 614.66 21.4621C616.15 21.4621 617.42 21.6982 618.467 22.1704C619.515 22.6427 620.349 23.292 620.969 24.1184C621.603 24.93 622.09 25.963 622.43 27.2174C622.784 28.4569 622.983 30.0802 623.027 32.0872H609.082V32.4856C609.082 34.2269 609.274 35.6953 609.657 36.8906C610.056 38.0712 610.698 39.0008 611.583 39.6797C612.483 40.3437 613.649 40.6758 615.081 40.6758C616.291 40.6758 617.375 40.4544 618.335 40.0117C619.308 39.5542 620.275 38.8164 621.234 37.7981L622.585 39.237ZM618.866 30.2499C618.777 28.6562 618.578 27.3575 618.268 26.3541C617.958 25.3358 617.493 24.5611 616.874 24.0298C616.254 23.4838 615.442 23.2108 614.439 23.2108C612.919 23.2108 611.701 23.8232 610.786 25.0481C609.886 26.2581 609.355 27.9921 609.193 30.2499H618.866ZM646.402 44.8151C645.591 46.645 644.801 48.1281 644.034 49.2644C643.267 50.4007 642.418 51.2566 641.488 51.8321C640.573 52.4076 639.481 52.6954 638.212 52.6954C637.401 52.6954 636.486 52.5995 635.467 52.4076V48.0248H637.437C637.615 48.6298 637.836 49.0504 638.102 49.2865C638.367 49.5226 638.751 49.6407 639.253 49.6407C639.695 49.6407 640.086 49.5521 640.426 49.375C640.78 49.2127 641.142 48.9249 641.51 48.5118C641.894 48.0986 642.337 47.464 642.839 46.6081C643.355 45.7522 643.931 44.6675 644.565 43.3542L638.367 26.6861C637.969 25.6088 637.644 24.8562 637.393 24.4283C637.157 24.0003 636.899 23.6757 636.618 23.4543C636.338 23.233 635.91 23.0559 635.335 22.9231V21.8384H644.344V22.9231C643.65 23.0854 643.163 23.2477 642.883 23.41C642.602 23.5576 642.396 23.7568 642.263 24.0077C642.13 24.2438 642.064 24.5537 642.064 24.9374C642.064 25.3358 642.108 25.749 642.197 26.177C642.3 26.6049 642.455 27.1067 642.661 27.6822L646.602 38.7721L651.029 28.147C651.28 27.5568 651.471 27.0181 651.604 26.5311C651.752 26.0294 651.826 25.5646 651.826 25.1366C651.826 24.5021 651.649 24.0225 651.294 23.6978C650.955 23.3731 650.357 23.1149 649.501 22.9231V21.8384H657.78V22.9231C657.205 23.0411 656.762 23.2256 656.452 23.4764C656.142 23.7126 655.832 24.0962 655.522 24.6275C655.212 25.144 654.843 25.8745 654.415 26.8189L646.402 44.8151ZM668.626 43.3542C665.557 43.3542 663.211 42.454 661.587 40.6536C659.979 38.8385 659.175 36.1601 659.175 32.6184C659.175 30.1835 659.595 28.1249 660.436 26.4426C661.292 24.7603 662.458 23.5133 663.934 22.7017C665.409 21.8753 667.092 21.4621 668.981 21.4621C672.139 21.4621 674.529 22.3844 676.153 24.2291C677.776 26.0589 678.587 28.6931 678.587 32.1314C678.587 34.5811 678.182 36.6471 677.37 38.3294C676.558 40.0117 675.407 41.2734 673.917 42.1146C672.426 42.941 670.663 43.3542 668.626 43.3542ZM663.358 32.1536C663.358 35.1935 663.838 37.5325 664.797 39.1705C665.771 40.7938 667.158 41.6055 668.958 41.6055C669.947 41.6055 670.788 41.3693 671.482 40.8971C672.176 40.4101 672.736 39.7608 673.164 38.9492C673.607 38.1376 673.924 37.2005 674.116 36.138C674.308 35.0607 674.404 33.9392 674.404 32.7734C674.404 30.6041 674.16 28.8037 673.673 27.3723C673.201 25.9409 672.552 24.8931 671.725 24.2291C670.899 23.5502 669.955 23.2108 668.892 23.2108C667.106 23.2108 665.734 23.9856 664.775 25.535C663.83 27.0845 663.358 29.2907 663.358 32.1536ZM682.55 21.8384H688.858V33.1054C688.858 34.832 688.925 36.1454 689.058 37.0455C689.19 37.9457 689.39 38.6245 689.655 39.082C689.921 39.5395 690.297 39.9232 690.784 40.2331C691.271 40.543 691.943 40.6979 692.798 40.6979C693.359 40.6979 693.898 40.5872 694.414 40.3659C694.931 40.1445 695.506 39.7608 696.141 39.2148C696.776 38.6541 697.226 38.1007 697.491 37.5547C697.772 37.0086 697.912 36.3741 697.912 35.651V27.3502C697.912 26.509 697.89 25.8745 697.845 25.4465C697.801 25.0186 697.727 24.6791 697.624 24.4283C697.521 24.1626 697.395 23.9487 697.248 23.7863C697.115 23.624 696.916 23.4764 696.65 23.3436C696.399 23.2108 695.986 23.0706 695.41 22.9231V21.8384H701.719V36.957C701.719 38.0933 701.741 38.9123 701.786 39.414C701.83 39.9158 701.926 40.3142 702.073 40.6094C702.221 40.9045 702.45 41.148 702.759 41.3398C703.069 41.5169 703.623 41.6866 704.42 41.849V43L699.351 43.2214H698L698.133 39.5911L697.801 39.5026C696.576 40.8307 695.403 41.8047 694.282 42.4245C693.175 43.0443 692.061 43.3542 690.939 43.3542C689.596 43.3542 688.489 43.0885 687.619 42.5573C686.748 42.026 686.099 41.2365 685.671 40.1888C685.243 39.1263 685.029 37.6358 685.029 35.7174V27.3502C685.029 26.1106 684.977 25.262 684.874 24.8046C684.785 24.3324 684.601 23.9634 684.321 23.6978C684.055 23.4174 683.465 23.1592 682.55 22.9231V21.8384ZM712.875 37.8646V43H708.404V37.8646H712.875Z" fill="white"/>
<path d="M293.21 150.273C283.379 159.013 274.767 169.046 265.596 178.548L265.572 178.573L262.928 181.212V177.735C262.928 166.834 263.18 155.961 262.827 145.09C262.647 139.704 261.934 134.19 260.414 129.061C254.696 109.55 233.053 100.174 210.927 107.846C189.561 115.239 177.797 131.169 174.571 152.941C172.489 167.217 171.726 181.8 171.473 196.23C171.016 223.132 171.346 250.061 171.346 277.42H133.113V217.238C132.832 193.155 132.654 169.833 132.174 146.54C132.043 141.407 131.259 136.199 129.937 131.247C124.271 109.804 102.526 99.6182 79.8674 108.026C54.4096 117.503 43.4847 137.828 42.4444 163.28C40.9726 198.721 41.2275 234.208 40.7673 269.671C40.7425 272.188 40.7673 274.726 40.7673 277.575H2.7384V72.9169H40.6166V92.6543C59.645 74.1377 81.0346 66.0342 105.602 67.9899C130.397 69.9714 149.6 81.4041 161.489 104.47C166.011 99.5419 169.9 94.7905 174.292 90.5726C201.729 64.2561 243.951 59.9599 272.353 80.5899C288.789 92.5293 296.334 109.55 300.451 128.907C302.408 138.103 300.145 144.099 293.211 150.274L293.21 150.273Z" fill="white"/>
<path d="M351.749 114.819C368.827 96.8921 386.34 80.3956 410.492 73.7143C455.243 61.3296 496.393 66.6958 531.527 99.5251C534.893 102.671 537.601 106.579 540.321 110.344C542.715 113.662 544.706 117.272 547.232 121.322C536.92 127.757 526.973 133.963 516.637 140.41C514.924 138.307 513.406 136.621 512.079 134.796C485.312 97.8888 425.53 95.1476 396.496 124.286C366.33 154.56 335.741 184.415 305.553 214.669C303.729 216.491 303.148 220.205 303.117 223.05C302.903 240.911 303.008 258.773 303.008 277.264H263.643C263.643 259.388 264.739 241.227 263.313 223.266C262.076 207.674 267.04 196.817 278.501 186.284C303.471 163.337 327.147 138.981 351.75 114.821L351.749 114.819Z" fill="white"/>
<path d="M802.998 111.401L796.897 116.485L796.583 116.765L784.626 126.723L776.773 133.314C774.879 131.667 773.056 130.404 771.584 128.792C748.444 103.687 720.15 94.5016 686.702 101.305C671.906 104.319 660.407 112.98 650.064 123.323C610.657 162.59 570.723 201.401 532.226 241.546C493.869 281.48 431.919 284.879 393.177 266.158C386.058 262.722 379.608 257.954 373.122 252.975C372.701 252.66 372.28 252.344 371.86 252.028C370.947 251.327 370.036 250.591 369.09 249.891C368.985 249.785 368.845 249.68 368.705 249.574C367.372 248.522 366.11 247.437 364.917 246.349C362.849 244.562 360.991 242.772 359.343 241.125C355.907 237.689 353.382 234.814 352.26 233.445C351.839 232.954 351.595 232.675 351.595 232.675C344.723 223.838 339.744 213.847 336.45 202.908C335.818 200.769 336.624 197.193 338.097 195.581C348.125 184.783 358.503 174.299 369.829 162.694C370.74 171.004 370.808 177.596 372.247 183.871C380.346 218.967 409.305 240.178 446.925 240.073C467.506 240.003 484.581 232.815 499.095 218.44C539.379 178.506 580.014 138.888 620.088 98.7789C636.323 82.5463 654.869 71.0819 677.622 65.6482C677.622 65.6482 677.728 65.6125 677.834 65.5768C678.008 65.5768 678.219 65.4716 678.431 65.4379C678.676 65.3675 678.92 65.3318 679.096 65.2971H679.131C681.235 64.9817 686.318 64.2459 693.401 63.8234H693.506C696.544 63.625 699.964 63.5011 703.678 63.4951H704.357C707.653 63.5011 711.173 63.6012 714.857 63.8234C723.938 64.352 734.071 65.7176 744.449 68.4171C747.64 69.2234 750.9 70.1705 754.125 71.3278C755.423 71.7483 756.721 72.2045 757.981 72.6954C758.052 72.6954 758.087 72.7301 758.122 72.7638C758.964 73.0455 759.77 73.3956 760.576 73.7467C761.559 74.1324 762.539 74.5172 763.522 74.9734C764.749 75.5 765.976 76.0613 767.203 76.6564C767.272 76.6921 767.342 76.7268 767.415 76.7625C767.518 76.8309 767.589 76.8676 767.66 76.9014C782.7 84.5446 793.954 96.5714 803 111.401H802.998Z" fill="white"/>
<path d="M802.997 224.491C786.61 251.776 762.909 267.523 732.704 274.057C726.658 275.351 720.434 275.935 713.577 276.899C675.875 278.807 643.309 268.972 617.574 241.029C607.462 230.056 599.764 217.606 595.573 203.203C594.964 201.145 595.04 197.817 596.285 196.472C606.624 185.319 617.317 174.495 629.308 162.097C630.072 200.56 645.924 226.802 681.513 236.736C718.149 246.923 748.76 235.644 772.158 204.168C782.47 210.976 792.504 217.582 802.998 224.492L802.997 224.491Z" fill="#00A84D"/>
<path d="M277.518 290.731V287.123H292.358V290.731H287.181V306.966H292.358V310.61H277.518V306.966H282.699V290.731H277.518Z" fill="white"/>
<path d="M167.332 310.61V287.123H174.904C177.575 287.123 179.571 287.59 180.906 288.523C182.24 289.46 182.906 290.872 182.906 292.769C182.906 293.35 182.841 293.928 182.698 294.48C182.565 295.037 182.35 295.553 182.062 296.02C181.775 296.486 181.419 296.897 180.985 297.258C180.557 297.614 180.048 297.897 179.46 298.099C180.047 298.198 180.606 298.388 181.132 298.672C181.664 298.953 182.129 299.314 182.528 299.763C182.926 300.217 183.244 300.745 183.478 301.359C183.709 301.965 183.826 302.648 183.826 303.401C183.826 305.801 183.022 307.598 181.426 308.807C179.819 310.009 177.507 310.61 174.482 310.61H167.331H167.332ZM174.795 307.002C175.5 307.002 176.118 306.91 176.65 306.731C177.182 306.553 177.629 306.302 177.99 305.99C178.353 305.671 178.622 305.297 178.813 304.86C178.995 304.432 179.087 303.971 179.087 303.481C179.087 302.462 178.706 301.665 177.948 301.094C177.182 300.518 176.018 300.228 174.453 300.228H171.703V307.002H174.795ZM178.316 293.535C178.316 293.087 178.242 292.688 178.102 292.325C177.956 291.969 177.728 291.664 177.409 291.412C177.091 291.16 176.681 290.964 176.185 290.829C175.689 290.687 175.089 290.62 174.38 290.62H171.703V296.842H174.38C175.102 296.842 175.706 296.758 176.201 296.578C176.7 296.407 177.109 296.168 177.428 295.861C177.746 295.554 177.972 295.203 178.107 294.813C178.248 294.413 178.316 293.99 178.316 293.536V293.535Z" fill="white"/>
<path d="M126.626 310.609L126.203 297.325L126.045 292.025L124.911 295.601L122.296 303.614H119.535L117.196 295.601L116.212 292.025L116.082 297.222L115.679 310.609H111.931L113.088 287.122H118.079L120.13 293.805L121.115 297.572L122.107 294.018L124.289 287.122H129.363L130.52 310.609H126.626Z" fill="white"/>
<path d="M75.1106 301.957C75.1106 303.454 74.9103 304.775 74.5126 305.902C74.11 307.032 73.5387 307.976 72.7909 308.732C72.0392 309.485 71.1268 310.057 70.0548 310.437C68.9777 310.822 67.7639 311.013 66.431 311.013C64.9186 311.013 63.6244 310.822 62.5563 310.437C61.4783 310.057 60.6016 309.503 59.9341 308.785C59.2627 308.069 58.7778 307.192 58.4783 306.16C58.1788 305.135 58.031 303.975 58.031 302.695V287.122H62.4392V302.431C62.4392 303.222 62.5077 303.922 62.6475 304.528C62.7814 305.142 63.0214 305.657 63.3645 306.087C63.7067 306.51 64.1351 306.831 64.6488 307.045C65.1625 307.259 65.8131 307.37 66.5906 307.37C67.3176 307.37 67.9374 307.278 68.4392 307.093C68.941 306.903 69.3625 306.609 69.6997 306.19C70.029 305.78 70.2809 305.246 70.4524 304.601C70.6161 303.959 70.7024 303.173 70.7024 302.247V287.122H75.1106V301.958V301.957Z" fill="white"/>
<path d="M17.3237 310.61L16.9023 297.326L16.7426 292.026L15.611 295.602L12.9958 303.615H10.2348L7.89535 295.602L6.90957 292.026L6.78164 297.223L6.37701 310.61H2.63025L3.7876 287.123H8.777L10.8289 293.806L11.8147 297.573L12.8064 294.019L14.9862 287.123H20.0609L21.2173 310.61H17.3237Z" fill="white"/>
<path d="M354.368 309.754C353.32 310.181 352.308 310.496 351.327 310.707C350.34 310.911 349.321 311.017 348.262 311.017C346.565 311.017 345.061 310.762 343.76 310.262C342.451 309.76 341.348 309.019 340.454 308.025C339.553 307.036 338.874 305.806 338.41 304.34C337.949 302.877 337.715 301.169 337.715 299.222C337.715 297.233 337.968 295.459 338.475 293.908C338.979 292.357 339.699 291.046 340.638 289.977C341.583 288.907 342.723 288.091 344.06 287.529C345.406 286.966 346.918 286.688 348.588 286.688C349.132 286.688 349.636 286.7 350.111 286.725C350.592 286.75 351.056 286.793 351.512 286.861C351.974 286.929 352.437 287.016 352.905 287.121C353.375 287.232 353.861 287.374 354.368 287.541V291.954C353.343 291.473 352.37 291.132 351.444 290.928C350.519 290.725 349.674 290.619 348.914 290.619C347.799 290.619 346.843 290.822 346.047 291.225C345.25 291.632 344.597 292.195 344.085 292.931C343.58 293.658 343.203 294.524 342.963 295.539C342.722 296.546 342.599 297.653 342.599 298.857C342.599 300.136 342.722 301.281 342.969 302.294C343.216 303.301 343.599 304.154 344.115 304.852C344.634 305.557 345.294 306.09 346.101 306.46C346.902 306.824 347.866 307.01 348.97 307.01C349.364 307.01 349.795 306.972 350.259 306.893C350.72 306.814 351.19 306.714 351.666 306.584C352.146 306.461 352.616 306.306 353.077 306.133C353.539 305.959 353.972 305.78 354.367 305.601V309.754H354.368ZM397.502 298.74C397.502 300.891 397.25 302.745 396.751 304.304C396.252 305.855 395.567 307.133 394.69 308.141C393.815 309.142 392.792 309.884 391.619 310.366C390.441 310.849 389.188 311.089 387.851 311.089C384.737 311.089 382.399 310.057 380.83 307.986C379.266 305.915 378.482 302.904 378.482 298.961C378.482 296.811 378.735 294.957 379.234 293.399C379.734 291.841 380.418 290.567 381.294 289.562C382.169 288.56 383.193 287.818 384.366 287.336C385.544 286.853 386.802 286.613 388.134 286.613C391.249 286.613 393.586 287.646 395.153 289.71C396.719 291.774 397.501 294.784 397.501 298.74H397.502ZM392.803 298.962C392.803 296.158 392.428 294.061 391.681 292.683C390.935 291.304 389.707 290.619 387.994 290.619C387.136 290.619 386.408 290.798 385.805 291.156C385.2 291.509 384.706 292.034 384.311 292.72C383.924 293.412 383.633 294.259 383.453 295.273C383.275 296.281 383.183 297.436 383.183 298.74C383.183 301.547 383.558 303.641 384.311 305.02C385.064 306.398 386.291 307.083 387.994 307.083C388.85 307.083 389.584 306.905 390.189 306.546C390.8 306.195 391.299 305.669 391.682 304.983C392.071 304.289 392.353 303.443 392.534 302.43C392.713 301.423 392.805 300.266 392.805 298.961L392.803 298.962ZM438.79 298.556C438.79 300.385 438.56 302.054 438.111 303.549C437.66 305.045 436.957 306.324 435.995 307.375C435.039 308.431 433.813 309.246 432.32 309.822C430.827 310.397 429.038 310.682 426.955 310.682H420.952V287.021H427.948C429.753 287.021 431.333 287.249 432.69 287.7C434.048 288.151 435.176 288.851 436.082 289.789C436.983 290.728 437.66 291.928 438.112 293.375C438.562 294.82 438.791 296.551 438.791 298.555L438.79 298.556ZM434.015 298.84C434.015 297.567 433.91 296.427 433.708 295.428C433.503 294.426 433.157 293.579 432.67 292.887C432.184 292.195 431.53 291.668 430.71 291.31C429.889 290.946 428.872 290.767 427.65 290.767H425.392V306.937H427.349C429.525 306.937 431.185 306.287 432.32 304.984C433.449 303.686 434.015 301.639 434.015 298.84ZM463.681 290.655V287.021H478.632V290.655H473.413V307.01H478.632V310.682H463.681V307.01H468.899V290.655H463.681ZM515.951 310.682L509.604 296.558L508.296 293.516V303.331V310.681H504.263V287.02H509.702L516.185 301.23L517.325 303.999V293.552V287.02H521.36V310.681H515.951V310.682ZM554.43 300.669V296.996H562.83V309.606C561.744 310.112 560.614 310.483 559.431 310.725C558.253 310.966 556.969 311.089 555.581 311.089C553.942 311.089 552.473 310.834 551.166 310.328C549.858 309.823 548.742 309.069 547.83 308.066C546.918 307.067 546.213 305.824 545.726 304.333C545.24 302.851 544.993 301.132 544.993 299.178C544.993 297.207 545.253 295.445 545.763 293.888C546.276 292.336 547.021 291.012 548.003 289.932C548.982 288.856 550.187 288.028 551.618 287.464C553.042 286.897 554.67 286.612 556.503 286.612C557.587 286.612 558.65 286.704 559.679 286.884C560.709 287.063 561.732 287.31 562.758 287.612V292.026C561.869 291.606 560.881 291.26 559.803 290.987C558.723 290.716 557.637 290.58 556.539 290.58C555.437 290.58 554.457 290.771 553.604 291.16C552.759 291.545 552.045 292.093 551.478 292.811C550.902 293.521 550.471 294.399 550.176 295.438C549.881 296.481 549.733 297.65 549.733 298.959C549.733 300.216 549.85 301.346 550.077 302.359C550.307 303.366 550.675 304.226 551.188 304.93C551.694 305.642 552.353 306.179 553.162 306.556C553.963 306.934 554.945 307.12 556.104 307.12C556.376 307.12 556.615 307.112 556.826 307.095C557.029 307.077 557.222 307.046 557.399 307.008C557.579 306.97 557.75 306.935 557.918 306.885C558.078 306.837 558.251 306.78 558.429 306.718V300.668H554.433L554.43 300.669Z" fill="white"/>
<path d="M638.252 309.684C637.203 310.109 636.192 310.424 635.213 310.635C634.225 310.838 633.207 310.944 632.145 310.944C630.451 310.944 628.945 310.691 627.644 310.189C626.336 309.688 625.231 308.947 624.338 307.952C623.438 306.963 622.76 305.734 622.296 304.268C621.834 302.804 621.6 301.097 621.6 299.15C621.6 297.16 621.852 295.387 622.358 293.835C622.864 292.284 623.585 290.973 624.524 289.903C625.468 288.833 626.609 288.017 627.945 287.455C629.289 286.893 630.802 286.616 632.472 286.616C633.015 286.616 633.522 286.627 633.995 286.652C634.478 286.676 634.939 286.719 635.395 286.787C635.859 286.856 636.322 286.942 636.791 287.047C637.26 287.159 637.747 287.302 638.252 287.468V291.882C637.228 291.399 636.253 291.059 635.328 290.856C634.403 290.652 633.558 290.546 632.8 290.546C631.683 290.546 630.726 290.75 629.931 291.152C629.136 291.56 628.481 292.122 627.97 292.858C627.464 293.588 627.089 294.454 626.849 295.466C626.608 296.474 626.483 297.58 626.483 298.784C626.483 300.064 626.608 301.208 626.855 302.222C627.099 303.229 627.482 304.081 628 304.781C628.521 305.487 629.18 306.017 629.987 306.388C630.789 306.754 631.752 306.938 632.856 306.938C633.25 306.938 633.682 306.901 634.146 306.821C634.607 306.742 635.077 306.642 635.552 306.514C636.032 306.389 636.502 306.234 636.963 306.063C637.425 305.889 637.859 305.71 638.253 305.531V309.685L638.252 309.684ZM665.252 310.61V286.949H669.768V306.79H679.758V310.61H665.252ZM722.043 301.895C722.043 303.402 721.84 304.732 721.44 305.869C721.032 307.007 720.459 307.958 719.705 308.72C718.946 309.479 718.027 310.053 716.949 310.436C715.863 310.827 714.644 311.017 713.298 311.017C711.775 311.017 710.472 310.827 709.393 310.436C708.307 310.053 707.426 309.497 706.754 308.774C706.075 308.051 705.587 307.168 705.286 306.129C704.984 305.097 704.835 303.93 704.835 302.637V286.95H709.276V302.372C709.276 303.169 709.345 303.873 709.488 304.486C709.621 305.105 709.862 305.623 710.208 306.055C710.555 306.481 710.986 306.804 711.503 307.021C712.021 307.236 712.675 307.347 713.458 307.347C714.191 307.347 714.815 307.255 715.32 307.069C715.826 306.879 716.251 306.581 716.59 306.162C716.925 305.747 717.177 305.209 717.35 304.56C717.516 303.912 717.603 303.119 717.603 302.187V286.951H722.044V301.897L722.043 301.895ZM747.193 310.61V286.949H754.823C757.513 286.949 759.522 287.419 760.868 288.358C762.214 289.304 762.885 290.726 762.885 292.635C762.885 293.222 762.817 293.803 762.674 294.359C762.54 294.922 762.323 295.442 762.034 295.91C761.743 296.38 761.387 296.795 760.948 297.159C760.516 297.517 760.003 297.803 759.411 298.006C760.003 298.104 760.565 298.297 761.095 298.581C761.631 298.866 762.1 299.23 762.502 299.681C762.903 300.139 763.224 300.67 763.458 301.288C763.692 301.9 763.809 302.586 763.809 303.347C763.809 305.764 763 307.575 761.392 308.793C759.774 310.006 757.444 310.61 754.396 310.61H747.191H747.193ZM758.259 293.408C758.259 292.957 758.186 292.555 758.044 292.189C757.895 291.831 757.667 291.524 757.347 291.269C757.026 291.016 756.613 290.819 756.112 290.682C755.613 290.54 755.009 290.473 754.293 290.473H751.598V296.74H754.293C755.02 296.74 755.632 296.653 756.132 296.474C756.631 296.3 757.043 296.059 757.364 295.751C757.685 295.443 757.913 295.09 758.049 294.695C758.19 294.293 758.258 293.866 758.258 293.408H758.259ZM754.713 306.975C755.422 306.975 756.045 306.883 756.583 306.703C757.118 306.524 757.569 306.271 757.933 305.955C758.297 305.632 758.568 305.256 758.759 304.817C758.944 304.385 759.036 303.922 759.036 303.427C759.036 302.401 758.652 301.597 757.888 301.024C757.117 300.443 755.946 300.152 754.367 300.152H751.598V306.975H754.712H754.713Z" fill="white"/>
<path d="M235.818 310.609L234.534 305.972H226.34L225.018 310.609H220.642L227.578 287.122H233.748L240.698 310.609H235.819H235.818ZM230.486 291.404L227.363 302.364H233.53L230.487 291.404H230.486Z" fill="white"/>
</svg>
